<?xml version="1.0" standalone="no"?>
<!DOCTYPE svg PUBLIC "-//W3C//DTD SVG 20010904//EN"
 "http://www.w3.org/TR/2001/REC-SVG-20010904/DTD/svg10.dtd">
<svg version="1.0" xmlns="http://www.w3.org/2000/svg"
 width="1500.000000pt" height="1500.000000pt" viewBox="0 0 1500.000000 1500.000000"
 preserveAspectRatio="xMidYMid meet">
<metadata>
Created by potrace 1.10, written by Peter Selinger 2001-2011
</metadata>
<g transform="translate(0.000000,1500.000000) scale(0.100000,-0.100000)"
fill="#080808" stroke="none">
<path d="M4500 12964 c-260 -25 -448 -48 -520 -63 -25 -5 -81 -17 -125 -26
-44 -9 -103 -23 -131 -31 -28 -8 -63 -14 -78 -14 -15 0 -36 -5 -47 -10 -10 -6
-38 -14 -61 -19 -24 -5 -56 -14 -73 -20 -16 -5 -57 -17 -90 -26 -147 -39 -418
-123 -485 -149 -39 -15 -104 -40 -165 -63 -22 -9 -53 -21 -70 -29 -16 -7 -104
-43 -195 -80 -175 -70 -265 -109 -290 -125 -8 -5 -22 -12 -30 -15 -43 -18
-452 -217 -480 -234 -8 -4 -22 -11 -30 -14 -8 -4 -28 -14 -45 -24 -16 -10 -70
-40 -120 -67 -211 -113 -660 -377 -827 -486 -37 -24 -96 -62 -130 -83 -185
-117 -337 -220 -342 -233 -3 -8 -3 -21 1 -28 5 -7 136 -115 293 -240 157 -124
312 -248 345 -275 33 -26 110 -87 170 -135 61 -48 137 -108 170 -135 33 -26
139 -111 235 -187 295 -234 682 -542 745 -593 80 -65 503 -400 536 -425 30
-23 524 -418 554 -443 87 -73 115 -92 136 -92 15 0 57 28 115 78 184 157 410
337 639 509 105 79 195 147 200 151 6 4 39 28 75 53 36 25 106 74 155 109 263
185 583 390 775 495 52 29 113 62 135 75 123 70 344 177 515 249 340 145 499
194 780 243 111 19 168 23 325 22 213 -1 345 -19 519 -73 139 -44 357 -155
493 -253 180 -130 420 -384 702 -743 52 -66 111 -140 130 -164 20 -25 45 -57
56 -72 136 -183 375 -452 498 -564 136 -122 353 -257 478 -299 217 -72 348
-91 530 -76 169 14 448 78 564 129 11 5 40 16 65 26 92 36 169 72 325 151 186
94 263 140 519 310 65 44 126 84 134 89 27 18 214 154 292 213 425 325 1111
924 1110 971 0 9 -47 48 -106 90 -59 41 -111 80 -118 86 -6 6 -76 59 -156 118
-80 58 -406 302 -725 541 -319 240 -587 436 -596 436 -9 0 -73 -62 -141 -137
-386 -426 -725 -710 -1028 -863 -58 -29 -109 -56 -115 -60 -5 -4 -19 -10 -30
-13 -11 -3 -45 -15 -75 -27 -30 -12 -71 -26 -90 -30 -296 -68 -422 -74 -650
-31 -25 5 -70 19 -100 31 -30 12 -64 24 -75 27 -26 6 -59 21 -185 84 -231 115
-417 247 -730 520 -47 41 -103 89 -125 108 -22 19 -83 73 -135 121 -52 47
-117 106 -145 131 -27 24 -81 73 -120 109 -67 63 -367 321 -470 406 -201 164
-534 414 -552 414 -4 0 -14 6 -22 14 -18 15 -331 197 -401 232 -180 91 -402
184 -545 228 -66 21 -135 44 -153 52 -18 8 -42 14 -53 14 -11 0 -30 5 -41 11
-19 10 -90 28 -193 49 -22 4 -74 15 -115 24 -132 29 -357 46 -655 50 -159 2
-310 2 -335 0z m423 -200 c27 -37 46 -72 43 -79 -7 -18 -316 -20 -338 -2 -27
22 -107 134 -101 141 4 3 83 6 177 6 l171 0 48 -66z m353 36 c96 -8 106 -14
165 -102 51 -74 50 -82 -3 -74 -24 4 -74 11 -112 16 -80 11 -85 15 -137 93
-44 67 -50 92 -18 82 11 -4 59 -10 105 -15z m-987 -62 c28 -35 50 -68 51 -75
0 -13 -10 -15 -155 -33 -49 -6 -112 -15 -138 -20 -27 -6 -53 -8 -58 -5 -5 3
-29 33 -54 66 l-46 59 36 16 c21 8 74 20 119 25 44 5 97 13 116 18 69 17 77
14 129 -51z m-620 -113 c51 -67 50 -88 -4 -97 -34 -6 -90 -20 -170 -43 -25 -7
-32 -1 -72 57 -53 75 -49 81 67 115 120 34 131 32 179 -32z m2271 27 c25 -9
52 -21 60 -27 23 -14 106 -126 114 -152 6 -19 4 -23 -16 -23 -79 0 -166 66
-223 172 l-26 48 23 -1 c13 0 43 -8 68 -17z m-1170 -82 c10 -7 -28 -10 -117
-10 -82 0 -133 4 -133 10 0 13 230 13 250 0z m-360 -19 c0 -9 -128 -21 -227
-21 -63 0 -87 15 -35 23 53 8 262 7 262 -2z m792 -8 c10 -10 -6 -13 -78 -13
-125 0 -244 11 -244 23 0 14 306 5 322 -10z m-2121 -25 c28 -24 71 -96 67
-115 -2 -12 -27 -26 -78 -44 -41 -14 -95 -34 -120 -43 -25 -10 -54 -20 -65
-22 -11 -3 -30 -10 -42 -16 -12 -6 -29 -8 -37 -5 -19 8 -76 95 -76 117 0 11
39 29 133 63 72 26 146 54 162 62 38 17 38 17 56 3z m1015 -15 c-6 -25 2 -36
76 -103 45 -41 139 -131 209 -200 230 -225 302 -294 368 -354 36 -32 183 -172
326 -310 410 -397 497 -480 545 -522 24 -21 65 -60 91 -86 26 -27 57 -48 68
-48 12 0 21 -4 21 -9 0 -13 -30 -22 -45 -13 -14 7 -214 196 -435 412 -71 69
-193 186 -272 260 -153 145 -335 321 -534 517 -68 67 -136 131 -151 143 -61
47 -323 312 -323 326 0 9 11 14 31 14 28 0 30 -2 25 -27z m1316 21 c21 -4 35
-10 32 -15 -10 -18 -194 -6 -194 12 0 10 107 12 162 3z m203 -34 c23 -6 12 -8
-42 -9 -43 -1 -73 3 -73 9 0 11 70 11 115 0z m-1640 -88 c39 -37 117 -112 175
-167 58 -55 220 -211 360 -346 140 -135 293 -281 339 -325 47 -43 137 -130
200 -192 64 -62 169 -163 234 -225 326 -309 360 -344 354 -360 -3 -8 -57 -41
-119 -72 -298 -149 -594 -303 -663 -346 -70 -43 -80 -49 -100 -59 -11 -6 -33
-19 -50 -30 -16 -11 -41 -25 -55 -31 -14 -5 -38 -21 -55 -33 -16 -13 -34 -25
-40 -27 -5 -2 -49 -30 -97 -61 -48 -32 -94 -58 -103 -58 -9 0 -93 66 -188 148
-95 81 -191 163 -213 182 -23 19 -82 69 -130 110 -49 41 -112 95 -139 120 -28
25 -64 56 -80 69 -17 14 -64 54 -106 90 -41 36 -89 77 -105 90 -16 13 -47 40
-70 60 -22 20 -62 54 -89 76 -26 22 -53 45 -59 50 -6 6 -54 47 -107 92 -53 45
-110 94 -125 109 -16 15 -51 45 -79 66 -27 22 -67 56 -88 75 -21 19 -66 57
-100 85 -34 28 -69 59 -78 67 -9 9 -38 34 -64 56 -65 53 -153 130 -232 201
-56 50 -53 71 14 98 27 10 77 32 113 48 36 16 79 36 95 43 74 33 153 69 190
85 22 10 99 39 170 65 72 25 143 52 158 60 16 8 36 15 46 15 9 0 26 7 37 15
10 8 28 15 39 15 11 0 29 7 39 15 11 8 32 15 46 15 14 0 31 5 37 11 6 6 26 14
44 19 19 5 72 22 119 39 47 16 141 43 210 61 69 17 132 35 140 40 8 5 35 9 60
9 42 1 49 -3 115 -67z m1785 58 c11 -7 7 -10 -17 -10 -17 0 -35 5 -38 10 -8
13 35 13 55 0z m752 -46 c34 -17 66 -47 111 -104 83 -106 103 -140 83 -140
-16 0 -130 63 -159 89 -25 21 -127 167 -127 181 0 14 29 6 92 -26z m-350 -73
c21 -14 38 -29 38 -33 0 -4 15 -23 33 -41 17 -19 60 -65 94 -103 34 -38 81
-90 105 -116 24 -25 66 -72 93 -103 28 -31 64 -72 80 -89 17 -18 55 -59 85
-92 30 -33 75 -82 100 -110 25 -27 83 -92 130 -144 47 -51 95 -105 108 -119
58 -65 193 -212 255 -277 67 -70 83 -104 50 -104 -31 1 -56 26 -48 49 5 17 -3
31 -37 64 -24 23 -68 71 -98 106 -30 35 -80 90 -110 121 -73 75 -127 135 -173
193 -22 26 -73 83 -115 125 -43 43 -95 100 -117 127 -36 45 -137 156 -191 209
-11 12 -51 56 -89 100 -117 136 -228 243 -258 250 -15 4 -25 11 -22 17 9 13
42 2 87 -30z m-3697 -59 c6 -4 19 -23 29 -42 11 -19 24 -43 30 -52 14 -23 -3
-38 -74 -68 -30 -12 -93 -40 -140 -62 -97 -45 -102 -44 -140 26 -19 36 -22 50
-14 64 6 9 68 42 137 72 69 30 129 58 133 63 9 9 26 9 39 -1z m3968 -44 c18
-13 34 -25 37 -28 3 -3 28 -16 55 -30 28 -14 52 -27 55 -30 3 -3 25 -15 50
-28 25 -13 59 -32 75 -42 17 -11 37 -23 45 -27 8 -3 19 -12 23 -20 4 -7 13
-13 18 -13 9 0 77 -47 116 -80 7 -5 15 -10 19 -10 3 0 16 -8 29 -17 12 -10 33
-25 45 -33 13 -8 49 -34 81 -57 33 -24 64 -43 69 -43 6 0 10 -4 10 -8 0 -5 30
-30 67 -57 36 -27 76 -58 89 -70 12 -11 32 -27 44 -35 12 -8 32 -23 43 -34 12
-10 43 -32 70 -48 26 -16 47 -34 47 -39 0 -5 5 -9 10 -9 6 0 18 -8 28 -17 10
-10 39 -36 65 -57 26 -22 45 -41 43 -43 -5 -5 -69 38 -74 50 -2 4 -10 7 -17 7
-8 0 -18 6 -22 13 -7 10 -53 49 -118 99 -5 5 -26 22 -45 38 -19 16 -43 32 -52
36 -10 3 -18 10 -18 15 0 5 -7 9 -15 9 -9 0 -18 7 -21 15 -4 8 -10 15 -15 15
-6 0 -260 184 -314 228 -5 4 -28 19 -50 32 -22 13 -42 26 -45 29 -7 8 -42 30
-60 38 -8 3 -31 18 -50 33 -19 15 -43 30 -52 33 -10 4 -18 11 -18 17 0 5 -4
10 -9 10 -5 0 -33 16 -62 35 -30 19 -59 35 -66 35 -7 0 -13 5 -13 10 0 13 -47
13 -55 0 -3 -6 1 -13 9 -16 9 -3 16 -12 16 -19 0 -7 4 -15 8 -17 5 -1 54 -55
108 -118 54 -63 106 -122 114 -131 44 -46 91 -100 129 -149 24 -30 71 -84 105
-120 34 -36 74 -81 90 -100 58 -72 102 -124 135 -159 18 -20 59 -65 90 -100
31 -35 63 -71 71 -80 9 -9 31 -37 50 -62 35 -47 89 -89 114 -89 7 0 19 -7 26
-15 7 -8 23 -15 35 -15 12 0 28 -7 35 -15 7 -8 23 -15 35 -15 12 0 28 -7 35
-15 7 -8 20 -15 30 -15 10 0 23 -7 30 -15 7 -8 19 -15 26 -15 8 0 31 -9 51
-20 21 -11 43 -20 50 -20 7 0 13 -5 13 -10 0 -12 -53 -1 -58 12 -2 4 -14 8
-27 8 -13 0 -30 7 -39 15 -8 8 -22 15 -31 15 -9 0 -29 6 -43 13 -15 8 -42 21
-60 30 -19 9 -39 17 -47 17 -7 0 -18 7 -25 15 -7 8 -22 15 -34 15 -25 0 -54
26 -153 135 -39 44 -83 93 -97 108 -14 15 -52 60 -83 99 -32 40 -83 97 -114
128 -30 30 -77 84 -105 119 -27 36 -65 81 -85 100 -19 20 -69 74 -110 121 -40
47 -78 90 -84 96 -5 6 -19 22 -30 35 -77 91 -166 192 -206 234 -88 92 -100
115 -62 115 8 0 28 -10 46 -22z m460 -39 c39 -20 128 -79 267 -176 43 -30 73
-66 138 -161 120 -180 115 -182 -76 -39 -75 57 -151 111 -167 121 -40 23 -232
276 -210 276 3 0 25 -10 48 -21z m-5037 -207 c6 -4 23 -29 37 -57 21 -39 24
-52 14 -61 -23 -22 -247 -134 -267 -134 -11 0 -23 8 -27 18 -3 9 -12 24 -19
32 -7 8 -15 27 -19 42 -7 29 -8 28 165 121 90 48 98 51 116 39z m242 -236 c15
-14 47 -43 71 -65 24 -23 64 -58 89 -78 25 -21 53 -45 62 -53 9 -8 37 -32 62
-53 89 -72 188 -167 174 -167 -8 0 -16 4 -18 8 -1 4 -32 30 -68 57 -36 27 -83
67 -105 89 -22 23 -69 66 -105 96 -36 30 -66 58 -68 63 -2 4 -8 7 -14 7 -10 0
-55 38 -86 73 -9 9 -30 17 -46 17 -28 0 -323 -140 -389 -184 -17 -12 -39 -25
-47 -29 -8 -4 -28 -16 -45 -27 -16 -11 -39 -24 -50 -30 -11 -6 -33 -19 -50
-30 -16 -10 -41 -25 -55 -32 -14 -8 -68 -40 -120 -72 -52 -31 -104 -62 -115
-69 -11 -7 -22 -14 -25 -17 -15 -15 -71 -50 -80 -50 -5 0 -10 -3 -10 -7 0 -8
-26 -25 -99 -66 -19 -10 -52 -31 -75 -45 -70 -45 -80 -51 -98 -58 -10 -3 -18
-10 -18 -14 0 -5 -10 -12 -22 -16 -51 -15 -49 -42 4 -82 68 -49 113 -91 106
-98 -4 -3 -35 16 -70 42 -115 88 -126 104 -89 135 15 14 102 68 226 142 11 7
22 14 25 17 9 10 89 60 125 80 11 6 34 19 50 30 17 11 39 24 50 29 11 5 36 20
55 33 19 13 42 27 50 31 8 4 29 16 45 27 17 11 37 23 45 27 8 3 31 18 50 33
19 15 42 30 50 33 8 4 29 16 45 27 17 10 50 29 75 42 25 13 47 26 50 29 3 4
16 10 30 14 14 4 27 11 30 14 3 3 31 20 63 36 83 43 97 51 110 64 6 6 17 11
25 11 7 0 20 7 28 15 9 8 24 15 33 15 10 0 24 7 31 15 20 24 78 19 108 -9z
m5607 -172 c41 -38 79 -81 85 -95 5 -13 19 -37 30 -54 11 -16 23 -37 27 -45 3
-8 17 -32 30 -53 46 -73 22 -70 -69 8 -72 63 -99 95 -156 188 -38 62 -73 123
-77 136 l-7 23 32 -18 c17 -11 65 -51 105 -90z m-6400 46 c36 -49 37 -52 20
-70 -10 -11 -22 -20 -26 -20 -7 0 -480 -281 -555 -330 -13 -8 -56 -36 -97 -61
l-74 -47 -51 40 c-29 21 -52 43 -52 47 0 4 44 37 98 71 53 35 140 92 192 125
149 97 482 295 496 295 7 0 29 -23 49 -50z m1474 -467 c35 -35 59 -63 54 -63
-6 0 -21 10 -35 23 -13 12 -46 40 -74 62 -71 57 -144 127 -144 138 0 13 125
-87 199 -160z m5009 115 c2 -4 9 -8 16 -8 17 0 106 -90 106 -107 0 -7 4 -13 8
-13 5 0 25 -24 45 -52 20 -29 51 -69 68 -88 18 -19 86 -107 152 -195 66 -88
125 -164 131 -170 7 -5 55 -65 107 -133 176 -231 220 -287 231 -293 6 -4 8
-15 4 -25 -6 -16 -35 9 -169 147 -202 207 -281 277 -418 371 -37 25 -77 49
-89 53 -18 6 -29 25 -13 25 3 0 36 -14 72 -32 65 -31 145 -90 251 -188 30 -27
58 -50 63 -50 16 0 6 27 -23 60 -16 19 -29 41 -30 48 0 6 -4 12 -9 12 -5 0
-23 21 -39 48 -16 26 -39 58 -51 72 -13 14 -39 46 -59 72 -20 27 -40 48 -44
48 -4 0 -8 7 -8 15 0 8 -4 15 -8 15 -10 0 -82 96 -82 109 0 5 -3 11 -8 13 -4
2 -32 35 -62 73 -61 78 -176 192 -202 201 -10 3 -18 10 -18 15 0 11 73 -29 78
-43z m278 -6 c49 -46 104 -113 117 -142 4 -8 13 -24 19 -35 121 -189 124 -227
7 -107 -63 65 -117 139 -174 241 -6 11 -16 25 -22 32 -6 8 -14 24 -17 37 -12
36 14 27 70 -26z m3758 7 c14 -11 26 -25 26 -30 0 -12 -69 -88 -91 -100 -13
-6 -25 -5 -39 3 -39 25 -35 47 16 99 27 27 51 49 55 49 3 0 18 -9 33 -21z
m215 -212 c1 -6 -54 28 -69 43 -3 3 -17 11 -32 17 -26 12 -30 9 -110 -74 -103
-107 -330 -330 -381 -375 -22 -18 -58 -50 -80 -71 -23 -21 -88 -72 -144 -114
-57 -43 -103 -83 -103 -90 0 -7 42 -52 92 -101 116 -110 328 -314 474 -457
213 -209 377 -360 393 -363 16 -2 319 219 334 245 4 7 13 13 18 13 6 0 16 6
23 13 7 6 37 32 66 57 29 25 67 59 84 76 17 17 59 53 93 81 34 28 119 107 189
176 113 112 126 128 114 142 -13 15 -11 17 10 13 47 -6 34 -35 -57 -124 -85
-83 -201 -190 -327 -303 -94 -83 -108 -94 -156 -131 -25 -18 -49 -38 -55 -44
-41 -44 -320 -256 -337 -256 -7 0 -70 55 -139 123 -69 67 -225 216 -345 332
-327 313 -504 492 -504 507 0 16 25 39 110 103 36 27 67 52 70 55 3 4 41 37
85 75 131 113 277 254 478 464 l77 81 64 -52 c36 -29 65 -57 65 -61z m-9159 4
c0 -4 10 -12 23 -18 21 -10 61 -42 137 -113 101 -93 128 -118 170 -150 24 -19
52 -42 61 -50 8 -8 46 -42 84 -75 37 -33 80 -71 94 -85 15 -14 49 -43 77 -65
87 -71 97 -79 150 -130 69 -67 127 -115 136 -115 5 0 8 -5 8 -10 0 -14 -16 -5
-71 40 -43 36 -49 40 -136 120 -27 25 -71 63 -98 85 -27 22 -56 47 -65 55 -8
8 -51 44 -94 80 -43 36 -91 76 -106 90 -59 56 -118 107 -159 140 -55 44 -97
80 -170 147 -31 29 -59 53 -63 53 -5 0 -8 4 -8 10 0 5 7 7 15 4 8 -4 15 -9 15
-13z m9196 -26 c4 -8 11 -15 16 -15 10 0 68 -43 118 -86 82 -72 103 -94 85
-88 -11 4 -22 10 -25 14 -3 3 -32 27 -65 52 -33 25 -71 56 -85 68 -14 12 -35
29 -47 37 -24 16 -30 33 -13 33 6 0 13 -7 16 -15z m-5457 1 c-11 -10 -189 -16
-189 -6 0 6 37 10 97 10 53 0 94 -2 92 -4z m611 -6 c0 -11 -105 -12 -250 0
-88 6 -82 7 78 8 109 1 172 -2 172 -8z m-925 -30 c-28 -12 -75 -12 -75 0 0 6
21 10 48 9 35 0 42 -3 27 -9z m5243 -16 c12 -8 22 -21 22 -29 0 -18 -90 -104
-109 -105 -18 0 -51 29 -51 45 0 13 94 105 107 105 5 0 19 -7 31 -16z m-5354
-3 c7 -10 -27 -21 -66 -21 -29 0 -38 14 -15 23 21 9 76 7 81 -2z m-114 -31 c0
-11 -68 -25 -78 -16 -3 4 0 11 8 16 20 13 70 13 70 0z m-115 -30 c7 -12 -40
-24 -56 -14 -9 5 -7 10 7 15 27 11 42 11 49 -1z m1235 -5 c32 -16 133 -152
124 -166 -6 -11 -162 -1 -189 12 -11 5 -31 26 -45 47 -13 20 -37 53 -52 73
-15 20 -25 39 -21 43 13 13 154 6 183 -9z m-443 -60 c15 -22 36 -50 46 -62 11
-12 17 -28 14 -35 -6 -18 -137 -43 -199 -39 -21 1 -118 138 -111 157 3 7 19
16 36 18 174 25 171 26 214 -39z m-877 35 c0 -12 -48 -25 -58 -16 -8 9 18 26
41 26 9 0 17 -4 17 -10z m2455 -76 c62 -63 74 -81 69 -100 -6 -25 11 -34 19
-11 2 7 8 8 13 3 5 -5 4 -11 -3 -13 -18 -6 -16 -48 2 -63 8 -7 15 -18 15 -25
0 -8 3 -15 8 -17 4 -1 25 -30 47 -63 22 -33 59 -86 82 -117 24 -31 43 -61 43
-66 0 -5 7 -12 15 -16 8 -3 15 -10 15 -17 0 -6 14 -28 30 -49 17 -21 30 -42
30 -48 0 -6 3 -12 8 -14 8 -3 52 -64 52 -73 0 -3 19 -31 43 -64 23 -32 49 -68
57 -81 8 -12 30 -42 48 -66 17 -23 32 -48 32 -53 0 -6 5 -11 10 -11 6 0 15
-10 20 -22 10 -24 31 -59 40 -68 12 -12 50 -70 50 -76 0 -4 21 -30 48 -58 26
-29 79 -87 117 -131 39 -43 131 -139 205 -213 126 -125 177 -172 290 -262 24
-19 55 -45 68 -57 14 -13 30 -23 35 -23 6 0 7 -3 4 -7 -10 -9 -111 45 -150 81
-46 41 -226 208 -263 242 -17 16 -84 87 -150 159 -65 71 -129 139 -140 150
-23 22 -94 112 -94 120 0 4 -61 96 -70 105 -15 15 -260 379 -260 386 0 3 -5
10 -10 17 -35 41 -110 148 -110 156 0 5 -3 11 -7 13 -9 4 -53 65 -53 73 0 3
-5 11 -11 18 -10 11 -83 121 -104 155 -5 10 -16 21 -22 25 -7 4 -13 14 -13 22
0 7 -3 15 -7 17 -14 6 -143 197 -143 211 0 20 28 0 95 -69z m-2083 -11 c40
-47 108 -155 103 -163 -4 -6 -14 -10 -23 -10 -9 0 -34 -6 -57 -14 -138 -47
-145 -48 -161 -35 -8 6 -36 43 -61 81 -56 83 -55 85 67 127 102 35 113 36 132
14z m1478 -36 c75 -38 91 -50 146 -122 95 -122 90 -146 -16 -82 -30 18 -70 39
-87 46 -47 19 -172 169 -158 191 10 17 26 12 115 -33z m4700 -9 c39 -29 70
-56 70 -60 0 -5 7 -8 15 -8 7 0 18 -6 22 -13 4 -8 29 -30 54 -49 64 -48 94
-77 87 -83 -3 -3 -12 0 -19 8 -8 7 -45 37 -83 65 -37 29 -74 58 -81 65 -7 7
-29 26 -49 42 -21 17 -47 38 -58 48 -12 9 -25 17 -30 17 -4 0 -8 5 -8 10 0 16
7 13 80 -42z m-4485 32 c7 -12 -2 -12 -30 0 -19 8 -19 9 2 9 12 1 25 -3 28 -9z
m629 -65 c31 -41 56 -77 56 -81 0 -4 7 -12 17 -19 9 -7 12 -14 6 -18 -14 -9
-75 54 -99 101 -10 20 -25 43 -31 50 -12 12 -18 42 -9 42 2 0 29 -34 60 -75z
m-7634 34 c0 -5 7 -9 15 -9 9 0 18 -7 21 -15 4 -8 11 -15 17 -15 11 0 89 -61
123 -96 12 -12 77 -64 145 -114 68 -51 129 -98 134 -104 6 -6 33 -29 60 -51
28 -22 59 -48 69 -57 11 -10 38 -30 60 -45 23 -15 43 -30 46 -33 3 -3 33 -27
67 -53 34 -26 68 -53 75 -60 7 -7 33 -28 58 -47 24 -19 52 -42 61 -50 8 -8 26
-22 39 -30 12 -8 28 -20 34 -25 6 -6 49 -40 96 -75 47 -35 90 -69 95 -75 6 -7
32 -29 60 -51 27 -21 56 -45 64 -52 8 -7 26 -21 40 -30 37 -23 234 -181 247
-198 6 -8 14 -14 18 -14 11 0 106 -74 106 -82 0 -4 6 -8 14 -8 8 0 16 -4 18
-8 2 -5 26 -26 53 -48 28 -21 61 -49 75 -61 67 -58 226 -173 240 -173 9 0 29
12 46 28 17 15 53 45 80 67 26 22 65 56 85 75 20 19 58 53 84 75 26 22 53 45
59 50 50 45 108 86 113 81 4 -4 -4 -14 -17 -23 -20 -14 -106 -88 -136 -117 -6
-6 -32 -29 -59 -51 -72 -60 -144 -125 -199 -177 -27 -27 -54 -48 -60 -48 -6 0
-26 14 -44 30 -18 17 -37 30 -42 30 -4 0 -10 4 -12 9 -1 5 -54 48 -116 95 -61
46 -118 91 -126 98 -7 7 -30 27 -51 43 -20 17 -42 35 -49 41 -6 6 -58 46 -116
89 -58 44 -109 84 -115 90 -5 6 -32 29 -60 50 -27 22 -52 42 -55 45 -3 3 -52
42 -110 86 -103 78 -148 114 -179 144 -9 8 -74 59 -144 113 -130 99 -167 129
-198 158 -9 9 -66 54 -125 99 -60 46 -111 86 -114 89 -3 4 -36 31 -75 60 -38
30 -79 64 -90 75 -11 12 -37 32 -58 46 -20 14 -37 28 -37 33 0 4 -7 7 -15 7
-7 0 -18 6 -22 14 -4 7 -13 15 -19 17 -15 5 -72 52 -137 111 -29 26 -55 48
-59 48 -5 0 -8 4 -8 10 0 5 7 7 15 4 8 -4 15 -10 15 -15z m10331 -62 c9 -16 6
-24 -17 -45 -16 -14 -41 -36 -56 -50 -25 -23 -30 -24 -58 -12 -29 12 -38 33
-22 56 4 5 28 26 55 46 51 39 80 40 98 5z m-5424 -111 c29 -37 53 -76 53 -86
0 -13 -24 -28 -87 -55 -49 -20 -92 -41 -97 -46 -6 -5 -18 -9 -27 -9 -9 0 -22
-7 -29 -15 -23 -28 -45 -15 -97 54 -65 87 -68 100 -23 123 102 52 227 107 240
105 8 -1 38 -33 67 -71z m3074 -46 c30 -21 64 -46 76 -55 13 -9 48 -48 80 -87
31 -40 64 -80 73 -88 23 -26 42 -61 35 -68 -12 -12 -120 52 -165 98 -25 25
-73 84 -108 132 -86 119 -84 136 9 68z m-771 -30 c21 -17 64 -70 96 -118 31
-48 70 -106 86 -130 15 -24 28 -45 28 -48 0 -11 -22 -2 -42 18 -40 40 -226
293 -221 300 7 12 13 10 53 -22z m488 13 c11 -10 30 -25 42 -33 12 -8 32 -23
43 -33 12 -11 59 -46 105 -80 46 -34 78 -63 72 -65 -10 -4 -114 70 -179 127
-13 12 -44 36 -67 54 -24 17 -44 35 -44 40 0 11 5 9 28 -10z m4082 2 c14 -16
10 -18 -14 -9 -9 3 -16 10 -16 15 0 14 16 11 30 -6z m-1784 -68 l27 -24 -59
-46 c-32 -26 -68 -47 -80 -47 -25 0 -58 34 -51 53 6 16 106 86 124 87 7 0 24
-11 39 -23z m1860 10 c2 -7 22 -24 44 -37 22 -14 40 -28 40 -32 0 -5 6 -8 13
-8 7 0 24 -13 37 -30 14 -16 31 -29 38 -30 6 0 12 -7 12 -15 0 -18 -5 -19 -22
-2 -7 6 -35 30 -62 51 -26 22 -62 52 -79 68 -17 15 -35 28 -39 28 -5 0 -8 5
-8 10 0 14 20 12 26 -3z m-7520 -89 c11 -13 37 -46 57 -75 35 -50 35 -53 19
-72 -9 -10 -46 -35 -82 -54 -101 -53 -164 -89 -177 -99 -21 -17 -38 -3 -87 72
-52 79 -53 95 -4 124 121 69 231 126 244 126 6 0 19 -10 30 -22z m5809 -170
c55 -57 123 -128 151 -158 28 -30 82 -85 120 -122 38 -37 141 -141 229 -233
88 -92 205 -211 260 -265 l99 -99 -26 -24 c-14 -13 -32 -27 -39 -31 -28 -14
-57 -32 -73 -45 -9 -8 -20 -10 -24 -6 -4 4 -1 10 6 12 7 3 18 10 25 16 6 7 29
23 49 37 21 14 38 33 38 42 0 9 -80 98 -177 198 -756 770 -738 753 -771 753
-28 0 -29 2 -14 13 9 8 24 14 31 14 8 0 60 -46 116 -102z m-1684 60 c30 -12
70 -33 89 -46 48 -35 153 -142 146 -149 -8 -9 -115 16 -155 35 -30 15 -118
104 -157 161 -14 19 -13 21 4 21 11 0 44 -10 73 -22z m1167 -21 l22 -24 -20
-18 c-12 -10 -35 -24 -53 -31 -18 -6 -39 -14 -48 -18 -18 -8 -79 37 -79 59 0
13 99 52 136 54 11 1 30 -9 42 -22z m2650 -26 c12 -11 22 -24 22 -30 0 -19
-123 -131 -144 -131 -21 0 -56 27 -56 44 0 17 123 136 140 136 8 -1 25 -9 38
-19z m-9310 -45 c13 -12 34 -30 46 -41 13 -11 51 -44 85 -74 34 -29 60 -56 57
-59 -5 -4 -70 44 -112 83 -6 5 -37 32 -68 60 -31 27 -56 53 -56 58 0 10 15 1
48 -27z m6872 14 c-19 -13 -30 -13 -30 0 0 6 10 10 23 10 18 0 19 -2 7 -10z
m-1610 -25 c7 -8 21 -15 31 -15 19 0 35 -17 25 -28 -4 -3 -15 -1 -24 6 -9 7
-29 17 -44 23 -16 6 -25 15 -22 20 8 13 20 11 34 -6z m1560 4 c0 -6 -9 -13
-20 -16 -11 -3 -20 -9 -20 -13 0 -5 -12 -13 -27 -19 -16 -6 -35 -15 -43 -19
-48 -28 -81 -42 -99 -42 -32 0 -25 20 9 26 16 4 35 13 41 20 6 8 20 14 31 14
11 0 26 7 34 15 9 8 24 15 33 15 10 0 24 7 31 15 15 18 30 20 30 4z m-2135
-98 c31 -37 72 -94 92 -127 57 -94 183 -314 183 -320 0 -3 7 -12 15 -20 16
-17 21 -48 6 -42 -12 4 -105 125 -173 225 -58 85 -213 339 -224 368 -13 33 40
-11 101 -84z m1539 53 c26 -20 45 -41 44 -46 -6 -17 -87 -38 -146 -38 -50 0
-58 4 -108 47 -30 25 -51 50 -47 54 5 5 49 10 98 12 50 1 95 4 101 5 6 1 32
-14 58 -34z m-844 -19 c10 -12 10 -15 -3 -15 -23 0 -47 11 -47 21 0 15 37 10
50 -6z m59 -24 c8 -5 9 -11 3 -15 -13 -8 -42 3 -42 15 0 11 21 11 39 0z m81
-37 c0 -2 -12 -4 -26 -4 -14 0 -23 4 -20 9 6 8 46 4 46 -5z m1060 7 c0 -11
-69 -25 -78 -16 -10 10 20 25 51 25 15 0 27 -4 27 -9z m-5778 -77 c26 -38 47
-74 48 -81 0 -14 -8 -20 -158 -119 -100 -65 -162 -91 -162 -66 0 4 -16 31 -35
61 -62 93 -64 87 82 183 132 87 151 98 168 94 6 -1 31 -34 57 -72z m5668 46
c0 -5 -17 -10 -37 -9 -31 0 -34 2 -18 9 28 12 55 12 55 0z m-670 -40 c12 -8 9
-10 -12 -10 -15 0 -30 5 -33 10 -8 13 25 13 45 0z m-5543 -36 c4 -10 -5 -25
-23 -41 -50 -43 -142 -113 -150 -113 -4 0 -13 -8 -20 -17 -7 -10 -16 -14 -20
-10 -8 8 21 37 67 67 12 8 31 23 41 33 10 9 20 17 22 17 13 0 56 49 56 64 0
21 19 21 27 0z m5700 -6 c13 -12 23 -27 23 -35 0 -7 5 -13 10 -13 6 0 14 -8
17 -17 4 -10 11 -22 15 -28 29 -36 78 -105 78 -110 0 -4 13 -24 28 -44 16 -20
32 -43 35 -51 8 -18 30 -53 38 -60 3 -3 16 -23 29 -45 13 -22 43 -66 67 -97
24 -31 43 -60 43 -63 0 -4 14 -24 30 -45 17 -21 30 -43 30 -49 0 -6 4 -11 9
-11 5 0 13 -10 17 -22 3 -12 11 -26 16 -32 9 -11 84 -122 103 -154 6 -10 14
-20 18 -23 5 -4 14 -16 20 -27 7 -12 36 -55 65 -97 28 -41 52 -78 52 -81 0 -3
7 -12 15 -20 8 -9 15 -24 15 -35 0 -15 -7 -19 -33 -19 -44 0 -50 7 -26 31 19
19 18 20 -44 109 -68 100 -74 109 -131 201 -22 35 -52 80 -68 100 -15 20 -28
40 -28 43 0 4 -5 12 -10 19 -23 28 -80 106 -80 111 0 3 -20 34 -45 70 -25 37
-45 71 -45 76 0 6 -4 10 -8 10 -5 0 -14 10 -21 23 -15 28 -33 56 -106 162 -33
47 -64 94 -70 103 -45 74 -89 122 -118 131 l-32 9 34 1 c23 1 43 -7 58 -21z
m148 2 c-4 -13 2 -31 18 -52 42 -58 69 -108 58 -108 -7 0 -15 8 -18 18 -4 9
-12 21 -20 25 -7 4 -13 12 -13 18 0 10 -10 24 -42 59 -9 10 -21 28 -28 39 -10
19 -8 21 20 21 27 0 30 -3 25 -20z m2884 -24 l22 -24 -53 -51 c-29 -28 -62
-51 -72 -51 -20 0 -56 27 -56 42 0 14 104 108 121 108 8 0 26 -11 38 -24z
m-9079 -257 c-19 -17 -47 -42 -62 -55 -14 -13 -29 -24 -31 -24 -3 0 -19 -12
-36 -28 -36 -33 -91 -66 -91 -55 0 4 20 23 44 41 24 18 55 43 68 55 23 21 61
52 103 82 37 27 40 15 5 -16z m318 -68 c23 -38 42 -76 42 -84 0 -17 -31 -43
-180 -148 -134 -95 -127 -92 -144 -82 -22 12 -106 123 -106 139 0 18 318 254
333 248 7 -2 31 -35 55 -73z m6052 61 c32 -39 60 -82 60 -91 0 -5 7 -11 15
-15 8 -3 15 -12 15 -21 0 -8 4 -15 10 -15 5 0 12 -11 16 -25 3 -14 10 -25 14
-25 4 0 10 -7 14 -15 11 -30 -11 -14 -47 35 -20 27 -37 52 -37 54 0 3 -11 17
-25 32 -14 15 -28 38 -31 51 -4 13 -10 23 -14 23 -4 0 -10 7 -14 15 -8 21 6
19 24 -3z m2405 -4 c15 -22 14 -25 -37 -70 -55 -49 -80 -57 -110 -34 -27 20
-23 30 35 80 58 51 88 57 112 24z m-326 -247 c29 -23 23 -37 -41 -85 -52 -40
-73 -44 -100 -19 -31 28 -28 33 66 97 46 31 44 31 75 7z m-2989 -153 c71 -79
123 -144 133 -168 4 -8 15 -27 25 -42 89 -138 152 -252 143 -261 -22 -22 -124
104 -236 293 -136 227 -148 250 -138 250 5 0 38 -33 73 -72z m1150 46 c0 -8 5
-14 10 -14 6 0 14 -8 17 -17 4 -10 11 -22 15 -28 38 -47 108 -146 108 -154 0
-5 4 -11 8 -13 15 -6 54 -78 43 -78 -7 0 -15 8 -18 18 -4 9 -12 21 -20 25 -7
4 -13 14 -13 21 0 8 -7 16 -15 20 -8 3 -15 12 -15 20 0 8 -3 16 -8 18 -4 2
-35 45 -70 95 -58 87 -75 122 -52 108 6 -3 10 -13 10 -21z m-6826 -110 c36
-42 53 -70 49 -79 -10 -15 -211 -178 -241 -194 -27 -14 -40 -6 -105 64 -28 31
-45 58 -42 66 9 21 248 208 266 209 9 0 42 -30 73 -66z m8327 -24 c33 -18 22
-44 -37 -83 -66 -43 -85 -45 -114 -15 -23 25 -22 26 46 73 53 36 74 41 105 25z
m-301 -39 c0 -5 -12 -14 -27 -20 -36 -15 -72 -36 -86 -50 -6 -6 -19 -11 -28
-11 -10 0 -19 -4 -21 -8 -3 -7 -83 -52 -93 -52 -16 0 -1 21 19 26 14 3 27 12
30 20 3 8 15 14 26 14 11 0 20 4 20 10 0 5 11 12 25 16 13 3 29 12 36 20 6 8
18 14 26 14 8 0 21 7 29 15 17 16 44 20 44 6z m-270 -151 c0 -5 -12 -10 -27
-10 -22 0 -25 2 -13 10 20 13 40 13 40 0z m225 -40 c25 -27 15 -42 -52 -80
-32 -18 -73 -41 -91 -52 -27 -15 -37 -16 -55 -6 -25 13 -47 39 -44 51 4 13
180 106 203 106 11 1 29 -8 39 -19z m-1595 -60 c0 -13 -11 -13 -30 0 -12 8
-11 10 8 10 12 0 22 -4 22 -10z m730 1 c0 -17 61 -71 81 -71 25 0 24 -17 -2
-25 -23 -8 -41 8 -78 68 -12 20 -18 37 -12 37 6 0 11 -4 11 -9z m-640 -31 c0
-13 -20 -13 -40 0 -12 8 -9 10 13 10 15 0 27 -4 27 -10z m925 0 c-28 -12 -55
-12 -55 0 0 6 17 10 38 9 30 0 33 -2 17 -9z m-829 -32 c-20 -11 -65 0 -47 12
7 4 24 5 38 2 21 -4 23 -6 9 -14z m744 13 c0 -12 -26 -21 -63 -21 -30 1 -31 1
-13 15 22 16 76 20 76 6z m-1043 -68 c49 -25 96 -52 106 -59 30 -20 138 -174
131 -185 -10 -16 -58 -5 -168 40 -29 11 -48 30 -74 71 -19 30 -50 78 -68 107
-58 88 -49 91 73 26z m658 26 c23 -9 -238 -12 -272 -3 -13 4 -20 11 -17 16 7
11 257 0 289 -13z m534 -93 c36 -38 24 -57 -49 -84 -36 -13 -72 -28 -80 -32
-9 -4 -34 -11 -57 -14 -43 -8 -57 0 -91 52 -15 23 -15 25 3 38 10 8 27 14 38
14 18 0 105 24 142 40 37 16 71 11 94 -14z m-528 -104 c46 -51 73 -92 65 -99
-11 -11 -186 -21 -212 -12 -19 7 -88 92 -101 125 -4 12 15 14 109 14 113 0
115 -1 139 -28z"/>
<path d="M3825 12430 c-16 -5 -57 -16 -90 -25 -33 -9 -76 -19 -95 -22 -19 -3
-44 -12 -55 -19 -11 -8 -34 -14 -51 -14 -17 0 -37 -7 -44 -15 -7 -8 -24 -15
-39 -15 -14 0 -35 -7 -45 -15 -11 -8 -31 -15 -45 -15 -14 0 -35 -7 -45 -15
-11 -8 -28 -15 -38 -15 -9 0 -32 -6 -50 -14 -51 -22 -102 -41 -243 -91 -172
-61 -257 -95 -295 -117 -8 -4 -22 -11 -30 -14 -8 -4 -37 -17 -65 -29 -131 -59
-212 -93 -232 -99 -11 -4 -27 -14 -34 -22 -11 -13 -7 -21 27 -52 43 -40 297
-259 354 -306 19 -16 65 -55 101 -87 37 -33 85 -74 107 -92 58 -47 809 -694
859 -740 22 -21 54 -48 70 -60 30 -22 93 -76 236 -202 44 -38 110 -95 147
-125 36 -30 79 -67 95 -82 l29 -27 35 21 c20 12 38 26 39 30 2 4 8 8 12 8 5 0
39 21 77 47 64 43 189 120 223 136 8 4 29 16 45 27 17 11 39 24 50 30 11 6 34
19 50 29 35 23 166 91 470 245 138 70 221 118 223 128 4 18 -31 55 -261 270
-126 119 -265 252 -451 433 -34 33 -131 125 -216 205 -170 159 -277 261 -409
390 -165 162 -362 340 -374 339 -7 -1 -25 -5 -42 -9z"/>
<path d="M2084 7555 c-96 -21 -169 -62 -231 -129 -61 -66 -92 -125 -120 -226
-17 -60 -18 -124 -18 -790 0 -804 -1 -795 67 -921 88 -166 281 -261 497 -245
213 15 355 98 430 250 63 129 63 131 68 596 4 396 3 425 -13 437 -13 10 -72
13 -228 13 -116 0 -221 -3 -233 -6 -23 -6 -23 -9 -23 -155 0 -107 3 -150 13
-156 6 -4 41 -10 77 -13 l65 -5 3 -228 c3 -308 -10 -354 -117 -392 -57 -20
-97 -19 -146 4 -48 22 -78 54 -94 100 -8 24 -11 234 -11 725 0 649 2 693 19
731 22 48 44 69 94 90 103 43 216 -12 245 -118 6 -26 12 -105 12 -176 0 -71 3
-136 6 -145 5 -14 29 -16 158 -16 105 0 156 4 164 12 19 19 16 270 -4 370 -42
211 -166 348 -355 393 -78 18 -242 18 -325 0z"/>
<path d="M4514 7555 c-96 -21 -169 -62 -231 -129 -61 -66 -92 -125 -120 -226
-17 -60 -18 -124 -18 -785 0 -789 0 -783 60 -910 84 -177 279 -278 504 -261
258 19 412 137 477 366 21 74 32 473 14 495 -16 20 -299 22 -318 3 -8 -8 -12
-64 -12 -186 0 -202 -13 -266 -61 -306 -53 -45 -133 -57 -196 -31 -50 21 -72
42 -94 90 -17 38 -19 82 -19 735 0 653 2 697 19 735 22 48 44 69 94 90 103 43
216 -12 245 -118 6 -26 12 -105 12 -176 0 -71 3 -136 6 -145 5 -14 29 -16 158
-16 105 0 156 4 164 12 19 19 16 270 -4 370 -42 211 -166 348 -355 393 -78 18
-242 18 -325 0z"/>
<path d="M162 7538 c-17 -17 -17 -289 0 -306 8 -8 64 -12 184 -12 147 0 173
-2 178 -16 3 -9 6 -447 6 -975 l0 -959 178 2 177 3 2 870 c0 479 2 916 2 973
l1 102 174 0 c106 0 177 4 181 10 10 17 14 270 5 296 l-10 24 -533 0 c-401 0
-536 -3 -545 -12z"/>
<path d="M5761 7536 c-8 -10 -10 -315 -9 -1137 l3 -1124 175 0 175 0 3 1122
c2 1010 1 1123 -14 1137 -21 22 -315 24 -333 2z"/>
<path d="M6701 7536 c-8 -10 -10 -315 -9 -1137 l3 -1124 158 -3 157 -3 0 788
c0 730 5 877 25 787 4 -16 13 -51 21 -79 8 -27 35 -126 59 -220 56 -211 92
-345 120 -445 7 -25 20 -74 30 -110 10 -36 23 -85 30 -110 7 -25 20 -74 30
-110 10 -36 23 -85 30 -110 7 -25 32 -117 55 -205 23 -88 47 -166 52 -172 13
-16 354 -19 360 -3 2 5 1 517 -2 1137 l-5 1128 -141 3 c-110 2 -144 0 -152
-11 -9 -10 -13 -187 -14 -628 -3 -538 -5 -614 -18 -614 -9 0 -19 17 -26 45 -7
25 -28 108 -49 185 -20 77 -47 181 -60 231 -12 49 -27 106 -33 125 -6 19 -18
61 -27 94 -9 33 -23 80 -30 105 -25 87 -99 367 -109 412 -13 56 -19 58 -240
58 -159 0 -206 -3 -215 -14z"/>
<path d="M8420 7531 c-7 -14 -9 -375 -8 -1138 l3 -1118 483 -3 482 -2 -2 162
-3 163 -300 5 -300 5 0 325 0 325 229 3 c149 1 234 6 243 13 10 9 13 48 13
154 0 106 -3 145 -13 154 -9 7 -94 12 -243 13 l-229 3 0 310 0 310 300 5 300
5 0 160 0 160 -472 3 c-459 2 -472 2 -483 -17z"/>
<path d="M9930 7531 c-7 -14 -9 -379 -8 -1138 l3 -1118 155 0 155 0 5 720 c3
472 8 719 15 718 12 -2 18 -29 40 -173 19 -118 41 -257 56 -340 5 -30 25 -154
44 -275 54 -337 65 -404 81 -483 8 -40 14 -86 14 -103 0 -68 3 -69 186 -69
123 0 166 3 168 13 3 11 13 74 52 342 8 55 21 143 29 195 8 52 21 140 29 195
8 55 22 150 31 210 25 168 44 292 60 380 8 44 15 96 16 115 0 34 14 80 21 70
1 -3 5 -345 8 -760 l5 -755 165 0 165 0 3 1122 c2 1010 1 1123 -14 1137 -13
14 -49 16 -239 16 -222 0 -225 0 -239 -22 -7 -13 -17 -45 -20 -73 -4 -27 -13
-93 -21 -145 -8 -52 -22 -142 -30 -200 -9 -58 -22 -145 -30 -195 -8 -49 -21
-136 -30 -192 -100 -666 -112 -732 -128 -706 -4 5 -20 95 -37 199 -39 244 -58
360 -75 459 -7 44 -21 125 -30 180 -9 55 -22 136 -30 180 -7 44 -21 125 -30
180 -40 249 -54 318 -66 326 -8 5 -116 9 -241 9 -215 0 -228 -1 -238 -19z"/>
<path d="M12291 7536 c-7 -8 -21 -72 -32 -143 -11 -70 -27 -171 -35 -223 -8
-52 -19 -124 -25 -160 -5 -36 -13 -87 -18 -115 -5 -27 -17 -95 -26 -150 -9
-55 -22 -138 -30 -185 -35 -213 -47 -285 -70 -430 -13 -85 -33 -216 -45 -290
-27 -175 -46 -299 -69 -435 -10 -60 -16 -116 -13 -122 6 -18 307 -18 319 -1 4
7 10 38 14 68 18 146 41 287 49 308 9 22 11 22 219 22 190 0 211 -2 219 -17 5
-10 19 -92 31 -183 13 -91 27 -175 32 -188 9 -22 10 -22 181 -20 l173 3 -3 40
c-2 22 -12 91 -23 154 -11 63 -35 219 -55 345 -19 127 -42 272 -50 321 -8 50
-18 117 -23 150 -5 33 -13 87 -19 120 -6 33 -18 105 -27 160 -9 55 -23 136
-30 180 -7 44 -21 127 -30 185 -9 58 -23 141 -30 185 -8 44 -21 130 -30 190
-27 179 -34 217 -46 231 -17 21 -491 20 -508 0z m254 -508 c3 -13 14 -88 25
-168 11 -80 27 -190 35 -245 9 -55 23 -145 31 -200 8 -55 21 -138 29 -185 9
-47 16 -119 18 -160 l2 -75 -158 -3 c-183 -3 -176 -7 -159 96 6 37 18 114 27
172 9 58 22 146 30 195 7 50 21 140 30 200 9 61 23 148 31 195 8 47 14 99 14
117 0 65 33 110 45 61z"/>
</g>
</svg>
